<?xml version="1.0" encoding="UTF-8"?>
<!DOCTYPE svg PUBLIC "-//W3C//DTD SVG 1.1//EN" "http://www.w3.org/Graphics/SVG/1.1/DTD/svg11.dtd">
<!-- Creator: CorelDRAW 2018 (64 Bit) -->
<svg xmlns="http://www.w3.org/2000/svg" xml:space="preserve" width="66.1806mm" height="45.2358mm" version="1.1" style="shape-rendering:geometricPrecision; text-rendering:geometricPrecision; image-rendering:optimizeQuality; fill-rule:evenodd; clip-rule:evenodd"
viewBox="0 0 8284.95 5662.93"
 xmlns:xlink="http://www.w3.org/1999/xlink">
 <defs>
  <style type="text/css">
   <![CDATA[
    .fil1 {fill:white}
    .fil0 {fill:white;fill-rule:nonzero}
   ]]>
  </style>
 </defs>
 <g id="Capa_x0020_1">
  <metadata id="CorelCorpID_0Corel-Layer"/>
  <g>
   <path class="fil0" d="M2391.11 3698.22l0.01 -3665.59 58.64 0 -0.01 3665.59 -30.21 29.31 -28.43 -29.31zm28.43 29.31l-28.43 -0.86 0 -28.44 28.43 29.31zm2727.42 82.97l-2727.42 -82.97 1.78 -58.61 2727.42 82.97 28.23 32.71 -30.01 25.9zm30.01 -25.9l-3.13 26.71 -26.88 -0.81 30.01 -25.9zm398.97 -3410.58l-398.97 3410.58 -58.24 -6.81 398.97 -3410.58 32.27 -25.74 25.96 32.55zm-25.96 -32.55l29.39 3.18 -3.43 29.37 -25.96 -32.55zm-3126.38 -337.98l3126.38 337.98 -6.31 58.29 -3126.38 -337.98 -26.16 -29.14 32.47 -29.14zm-32.47 29.14l0 -32.65 32.47 3.51 -32.47 29.14z"/>
  </g>
  <path class="fil0" d="M619.01 4519.44c0,94.62 -90.74,141.94 -272.03,141.94 -5.45,0 -12.28,-0.14 -20.52,-0.29 -8.38,-0.13 -18.01,-0.28 -28.89,-0.55 -10.89,-0.28 -20.52,-0.56 -28.61,-0.7 -8.25,-0.14 -15.09,-0.14 -20.53,-0.14 -127.57,0 -204.33,-24.01 -230.16,-72.02 -9.06,-16.61 -13.53,-39.36 -13.53,-68.24l0 -325.91c0,-21.22 10.6,-31.82 31.82,-31.82 20.52,0 33.64,0.84 39.36,2.5 13.26,4.06 19.97,13.96 19.97,29.46l0 319.63c0,31.67 19.25,52.75 57.64,63.36 11.44,2.79 25.13,4.88 40.76,6.15 15.64,1.39 34.19,2.09 55.41,2.09l125.2 0c47.73,0 79.68,-2.65 96.17,-7.81 38.37,-10.05 57.64,-31.12 57.64,-63.37l0 -320.04c0,-15.77 6.42,-25.68 19.27,-29.46 5.16,-1.66 18.14,-2.5 39.22,-2.5 21.21,0 31.82,10.6 31.82,31.96l0 325.77zm682.92 86.8c0,37.82 -16.61,56.81 -49.96,56.81 -15.21,0 -32.52,-8.1 -51.93,-24.15l-424.15 -360.24 0 348.8c0,16.05 -6.57,26.24 -19.69,30.28 -3.77,0.55 -8.94,0.98 -15.49,1.39 -6.57,0.43 -14.37,0.56 -23.74,0.56 -21.22,0 -31.82,-10.74 -31.82,-32.24l0 -415.37c0,-36 15.5,-54.02 46.62,-54.02 19.68,0 39.77,8.65 60.58,26.1l418.44 356.18 0 -346.69c0,-15.77 6.56,-25.83 19.68,-29.87 3.77,-0.55 8.93,-1.11 15.49,-1.54 6.56,-0.41 14.38,-0.55 23.74,-0.55 21.49,0 32.24,10.6 32.24,31.96l0 412.58zm155.76 21.22c0,21.49 -10.6,32.24 -31.82,32.24 -9.34,0 -17.16,-0.14 -23.72,-0.56 -6.56,-0.41 -11.72,-0.84 -15.49,-1.39 -13.13,-4.04 -19.69,-14.23 -19.69,-30.28l0 -433.8c0,-16.05 6.42,-26.1 19.27,-29.87 2.93,-0.55 7.67,-1.11 14.25,-1.54 6.55,-0.41 14.92,-0.55 25.39,-0.55 21.22,0 31.82,10.6 31.82,31.82l0 433.94zm754.4 -440.5c0,6.84 -3.22,15.07 -9.49,24.56l-294.36 418.71c-14.37,20.24 -32.51,30.3 -54.43,30.3 -22.33,0 -40.47,-9.9 -54.29,-29.87l-295.2 -419.14c-6.27,-9.49 -9.49,-17.73 -9.49,-24.56 0,-17.73 14.93,-26.51 44.67,-26.51 22.61,0 37.41,4.88 44.53,14.65l269.79 385.23 268.68 -385.23c6.84,-9.76 21.77,-14.65 44.67,-14.65 29.87,0 44.94,8.79 44.94,26.51zm583.97 223.73c0,26.38 -11.3,39.63 -33.91,39.63l-437.15 0 0 81.8c0,35.17 38.81,52.75 116.55,52.75l320.6 0c21.21,0 31.82,10.75 31.82,32.25 0,28.33 -10.62,42.56 -31.82,42.56l-324.65 0c-47.46,0 -91,-8.51 -130.51,-25.4 -48.57,-22.06 -72.86,-54.99 -72.86,-98.96l0 -246.91c0,-23.72 8.1,-45.22 24.15,-64.62 34.9,-41.45 97.28,-62.11 186.89,-62.11l88.77 0c20.94,0 31.55,13.96 31.55,41.72 0,21.51 -10.6,32.25 -31.55,32.25l-13.12 0 -8.1 0 -4.61 0c-2.93,0 -4.61,-0.14 -4.88,-0.43 -6.84,-0.28 -12.69,-0.41 -17.59,-0.55 -4.88,-0.15 -8.93,-0.29 -12.28,-0.29 -99.51,0 -149.2,18.01 -149.2,54.02l0 87.11 438.39 0c22.33,0 33.5,11.72 33.5,35.17zm658.08 -62.94c0,44.94 -23.72,77.88 -71.18,98.53 -37.54,15.21 -80.95,22.9 -129.94,22.9l-149.62 0 303.43 128.83c16.06,7.11 24.15,17.58 24.15,31.4 0,20.51 -17.86,30.7 -53.59,30.7 -14.23,0 -25.4,-1.11 -33.5,-3.2l-414.24 -177.11 0 147.67c0,21.49 -10.62,32.24 -31.82,32.24 -22.62,0 -35.74,-0.98 -39.22,-2.79 -13.12,-4.04 -19.69,-13.96 -19.69,-29.44l0 -433.8c0,-21.36 10.62,-31.96 31.82,-31.96l365.55 0c56.67,0 103.29,7.4 139.86,22.05 52.05,21.08 78.02,55.7 78.02,103.86l0 60.15zm-90.72 0.83l0 -62.94c0,-33.35 -42.56,-49.96 -127.57,-49.96l-306.22 0 0 159.54 322.54 0c74.11,0 111.24,-15.5 111.24,-46.63zm698.43 187.73c0,26.66 -4.19,47.46 -12.71,62.53 -22.62,40.61 -91,60.85 -205.31,60.85l-314.32 0c-21.08,0 -31.55,-10.74 -31.55,-32.24 0,-14.8 1.68,-24.99 4.88,-30.71 4.61,-7.95 13.55,-11.87 26.66,-11.87l314.46 0c84.71,0 127.14,-15.62 127.14,-47.03l0 -42.85c0,-30.56 -41.02,-47.17 -123.1,-49.96l-150.88 -4.89c-7.12,-0.28 -17.16,-0.69 -30.16,-1.39 -12.83,-0.7 -28.74,-1.68 -47.58,-3.07 -32.66,-3.77 -60.85,-14.52 -84.3,-32.25 -25.55,-19.68 -38.39,-45.49 -38.39,-77.33l0 -37.68c0,-58.06 32.11,-96.31 96.46,-114.86 30.85,-7.96 87.23,-11.87 169.3,-11.87 21.21,0 31.82,13.96 31.82,41.72 0,16.06 -6.28,26.11 -19.12,30.15 -1.97,1.13 -14.95,1.68 -38.95,1.68 -99.25,0 -148.78,17.45 -148.78,52.35l0 34.89c0,21.49 18.57,35.58 55.68,42.15 6.97,1.25 17.31,2.37 30.86,3.07 13.4,0.69 29.99,0.98 49.67,0.98l121.43 0c58.06,0 103.84,7.54 137.48,22.47 52.89,21.77 79.28,55.27 79.28,100.49l0 44.67zm139.01 91.15c0,21.49 -10.6,32.24 -31.82,32.24 -9.35,0 -17.16,-0.14 -23.72,-0.56 -6.56,-0.41 -11.73,-0.84 -15.49,-1.39 -13.13,-4.04 -19.69,-14.23 -19.69,-30.28l0 -433.8c0,-16.05 6.42,-26.1 19.27,-29.87 2.93,-0.55 7.67,-1.11 14.23,-1.54 6.56,-0.41 14.93,-0.55 25.4,-0.55 21.22,0 31.82,10.6 31.82,31.82l0 433.94zm684.06 -102.32c0,46.91 -23.59,82.49 -70.77,106.78 -36.57,18.55 -81.1,27.77 -133.71,27.77l-384.25 0c-21.36,0 -31.96,-10.74 -31.96,-32.24l0 -433.94c0,-21.22 10.6,-31.82 31.96,-31.82l386.34 0c134.96,0 202.39,42.29 202.39,126.73l0 236.72zm-90.03 -0.41l0 -235.88c0,-19.4 -14.65,-33.78 -44.1,-43.4 -21.08,-6.57 -44.67,-9.78 -70.77,-9.78l-325.06 0 0 349.21 323.4 0c28.04,0 52.34,-3.63 72.86,-11.03 29.17,-10.33 43.68,-26.8 43.68,-49.12zm801.99 101.19c0,12.42 -4.19,23.03 -12.71,31.41 -8.36,8.51 -18.84,12.69 -31.4,12.69 -17.45,0 -31.68,-8.24 -42.58,-24.56l-80.53 -116.96 -382.71 0 -80.52 116.96c-8.8,12.83 -18.15,19.25 -28.2,19.25 -10.19,0 -19.82,-3.2 -29.03,-9.76 -10.47,-7.11 -15.64,-15.5 -15.64,-24.99 0,-3.07 0.84,-5.72 2.52,-8.22l286.97 -438.82c11.72,-18.01 31.96,-26.95 60.57,-26.95 21.22,0 35.45,6.01 42.58,18.01 0.55,0.84 1.11,1.95 1.82,3.49 0.7,1.53 1.66,3.34 3.07,5.45l304.28 430.71c0.96,1.83 1.53,6.01 1.53,12.29zm-220.39 -172.66l-137.76 -203.22 -138.59 203.22 276.35 0zm882.81 71.88c0,46.91 -23.59,82.49 -70.77,106.78 -36.57,18.55 -81.1,27.77 -133.71,27.77l-384.24 0c-21.37,0 -31.97,-10.74 -31.97,-32.24l0 -433.94c0,-21.22 10.6,-31.82 31.97,-31.82l386.33 0c134.98,0 202.39,42.29 202.39,126.73l0 236.72zm-90.03 -0.41l0 -235.88c0,-19.4 -14.65,-33.78 -44.1,-43.4 -21.07,-6.57 -44.65,-9.78 -70.77,-9.78l-325.06 0 0 349.21 323.4 0c28.05,0 52.34,-3.63 72.86,-11.03 29.17,-10.33 43.68,-26.8 43.68,-49.12zm1010.92 0.41c0,46.91 -23.59,82.49 -70.76,106.78 -36.57,18.55 -81.1,27.77 -133.71,27.77l-384.25 0c-21.36,0 -31.96,-10.74 -31.96,-32.24l0 -433.94c0,-21.22 10.6,-31.82 31.96,-31.82l386.34 0c134.98,0 202.38,42.29 202.38,126.73l0 236.72zm-90.02 -0.41l0 -235.88c0,-19.4 -14.66,-33.78 -44.1,-43.4 -21.07,-6.57 -44.65,-9.78 -70.77,-9.78l-325.06 0 0 349.21 323.4 0c28.05,0 52.33,-3.63 72.85,-11.03 29.18,-10.33 43.69,-26.8 43.69,-49.12zm700.66 -114.03c0,26.38 -11.3,39.63 -33.91,39.63l-437.15 0 0 81.8c0,35.17 38.81,52.75 116.55,52.75l320.6 0c21.21,0 31.81,10.75 31.81,32.25 0,28.33 -10.6,42.56 -31.81,42.56l-324.66 0c-47.45,0 -91,-8.51 -130.49,-25.4 -48.57,-22.06 -72.86,-54.99 -72.86,-98.96l0 -246.91c0,-23.72 8.1,-45.22 24.15,-64.62 34.89,-41.45 97.28,-62.11 186.89,-62.11l88.77 0c20.93,0 31.53,13.96 31.53,41.72 0,21.51 -10.6,32.25 -31.53,32.25l-13.12 0 -8.1 0 -4.61 0c-2.93,0 -4.61,-0.14 -4.89,-0.43 -6.84,-0.28 -12.69,-0.41 -17.58,-0.55 -4.88,-0.15 -8.94,-0.29 -12.28,-0.29 -99.51,0 -149.21,18.01 -149.21,54.02l0 87.11 438.4 0c22.33,0 33.5,11.72 33.5,35.17zm-6612.84 1192.61c0,22.1 -9.23,36.17 -27.67,41.84 -7.66,2.15 -25.9,3.33 -55.14,3.33 -29.82,0 -44.74,-15.06 -44.74,-45.17l0 -451.37 -376.56 462.92c-20.02,24.44 -47.1,36.55 -81.05,36.55 -34.54,0 -61.8,-12.12 -81.83,-36.55l-383.42 -465.07 0 453.53c0,30.11 -14.92,45.17 -44.74,45.17 -29.63,0 -47.88,-1.18 -55.14,-3.33 -18.44,-5.67 -27.67,-19.74 -27.67,-41.84l0 -585.29c0,-43.2 23.75,-64.71 71.23,-64.71 31.01,0 55.92,11.14 74.76,33.24l448.38 528.6 438.19 -529.19c18.44,-22.08 42.58,-33.24 72.41,-33.24 48.66,0 73,23.46 73,70.38l0 580.2zm2487.68 -589.98c0,-34.99 15.5,-52.58 46.69,-52.58l458.92 0c51.63,0 60.93,24.95 60.88,51.6 -0.03,13.86 -4.18,23.75 -13.55,34.54 -3.67,4.69 -8.11,9.2 -13.38,13.56l-5.47 4.61c-7.42,6.43 -16.25,13.71 -26.63,22.42l-0.36 0.3 -2.03 1.72 -539.29 454.2 554.17 0c31.2,0 46.69,17.39 46.69,52.19 0,34.99 -15.5,52.59 -46.69,52.59l-639.72 0c-27.67,0 -50.83,-5.08 -69.67,-15.45 -23.74,-12.71 -35.5,-31.27 -35.5,-56.11 0,-16.02 6.66,-29.71 20,-41.25l63.26 -53.52c3.64,-4.64 8.09,-9.18 13.27,-13.53l478.06 -402.25 1 -0.84 -303.97 0c-31.16,0 -46.69,-17.4 -46.69,-52.2zm-1438.64 587.83c0,17.4 -5.88,32.26 -17.85,43.99 -11.78,11.93 -26.49,17.79 -44.15,17.79 -24.52,0 -44.54,-11.53 -59.84,-34.4l-113.23 -163.82 -538.07 0 -113.22 163.82c-12.37,17.98 -25.51,26.98 -39.65,26.98 -14.32,0 -27.87,-4.51 -40.81,-13.7 -14.71,-9.96 -21.98,-21.69 -21.98,-34.99 0,-4.29 1.18,-8.01 3.53,-11.53l403.45 -614.62c16.49,-25.21 44.93,-37.72 85.16,-37.72 29.82,0 49.85,8.4 59.85,25.21 0.78,1.18 1.56,2.74 2.54,4.88 0.99,2.15 2.37,4.69 4.32,7.62l427.79 603.28c1.36,2.55 2.15,8.41 2.15,17.2zm-309.84 -241.81l-193.68 -284.63 -194.87 284.63 388.54 0zm1238.99 214.26c0,52.97 -23.35,79.56 -70.24,79.56 -21.39,0 -45.73,-11.34 -73,-33.81l-596.35 -504.55 0 488.52c0,22.48 -9.21,36.75 -27.67,42.43 -5.3,0.78 -12.56,1.36 -21.78,1.95 -9.23,0.59 -20.22,0.79 -33.35,0.79 -29.83,0 -44.74,-15.06 -44.74,-45.17l0 -581.77c0,-50.44 21.77,-75.65 65.54,-75.65 27.67,0 55.93,12.12 85.16,36.55l588.3 498.88 0 -485.59c0,-22.1 9.21,-36.17 27.67,-41.84 5.3,-0.78 12.56,-1.56 21.78,-2.15 9.23,-0.58 20.22,-0.78 33.36,-0.78 30.21,0 45.32,14.85 45.32,44.77l0 577.86zm219 29.71c0,30.11 -14.92,45.17 -44.74,45.17 -13.14,0 -24.14,-0.2 -33.36,-0.79 -9.21,-0.59 -16.49,-1.18 -21.78,-1.95 -18.45,-5.67 -27.67,-19.94 -27.67,-42.43l0 -607.57c0,-22.48 9.03,-36.55 27.08,-41.84 4.12,-0.78 10.79,-1.56 20.02,-2.15 9.21,-0.58 20.99,-0.78 35.72,-0.78 29.82,0 44.74,14.85 44.74,44.57l0 607.77zm1880.28 -2.15c0,17.4 -5.88,32.26 -17.86,43.99 -11.77,11.93 -26.49,17.79 -44.15,17.79 -24.52,0 -44.54,-11.53 -59.84,-34.4l-113.23 -163.82 -538.05 0 -113.23 163.82c-12.37,17.98 -25.51,26.98 -39.63,26.98 -14.33,0 -27.88,-4.51 -40.82,-13.7 -14.72,-9.96 -21.97,-21.69 -21.97,-34.99 0,-4.29 1.18,-8.01 3.53,-11.53l403.44 -614.62c16.49,-25.21 44.94,-37.72 85.16,-37.72 29.83,0 49.85,8.4 59.85,25.21 0.79,1.18 1.58,2.74 2.55,4.88 0.98,2.15 2.35,4.69 4.32,7.62l427.78 603.28c1.38,2.55 2.17,8.41 2.17,17.2zm-309.85 -241.81l-193.68 -284.63 -194.87 284.63 388.54 0zm1143.82 243.96c0,30.11 -14.91,45.17 -44.74,45.17l-409.34 0c-93.59,0 -166.6,-8.41 -218.99,-25.23 -80.85,-27.75 -121.27,-80.73 -121.27,-158.54l0 -469.18c0,-29.72 14.91,-44.57 44.74,-44.57 28.84,0 47.08,1.18 55.14,3.52 18.44,5.27 27.67,19.15 27.67,41.25l0 468.98c0,36.17 29.43,60.01 88.49,71.54 18.84,4.89 62.61,7.44 131.08,7.44l402.46 0c29.83,0 44.74,19.93 44.74,59.61zm855.18 -303.59c0,36.96 -15.9,55.52 -47.68,55.52l-614.59 0 0 114.56c0,49.26 54.54,73.9 163.84,73.9l450.75 0c29.82,0 44.73,15.05 44.73,45.15 0,39.68 -14.91,59.63 -44.73,59.63l-456.43 0c-66.72,0 -127.94,-11.93 -183.47,-35.59 -68.29,-30.88 -102.44,-77.02 -102.44,-138.59l0 -345.82c0,-33.24 11.38,-63.33 33.95,-90.51 49.06,-58.06 136.78,-86.99 262.75,-86.99l124.8 0c29.43,0 44.35,19.54 44.35,58.45 0,30.11 -14.92,45.15 -44.35,45.15l-18.45 0 -11.37 0 -6.48 0c-4.12,0 -6.47,-0.2 -6.86,-0.59 -9.63,-0.39 -17.86,-0.58 -24.72,-0.78 -6.87,-0.2 -12.56,-0.39 -17.28,-0.39 -139.91,0 -209.76,25.21 -209.76,75.65l0 121.98 616.36 0c31.38,0 47.1,16.42 47.1,49.26zm841.43 175.94c0,37.34 -5.9,66.47 -17.86,87.58 -31.78,56.88 -127.94,85.24 -288.66,85.24l-441.91 0c-29.62,0 -44.34,-15.06 -44.34,-45.17 0,-20.72 2.35,-34.99 6.86,-43 6.48,-11.14 19.04,-16.61 37.48,-16.61l442.11 0c119.12,0 178.77,-21.9 178.77,-65.89l0 -60.01c0,-42.81 -57.69,-66.07 -173.07,-69.98l-212.13 -6.85c-10,-0.39 -24.14,-0.98 -42.39,-1.95 -18.05,-0.98 -40.42,-2.34 -66.91,-4.31 -45.92,-5.27 -85.55,-20.32 -118.53,-45.15 -35.9,-27.55 -53.96,-63.72 -53.96,-108.3l0 -52.78c0,-81.32 45.13,-134.89 135.59,-160.89 43.36,-11.14 122.65,-16.61 238.03,-16.61 29.82,0 44.73,19.54 44.73,58.45 0,22.48 -8.83,36.55 -26.88,42.23 -2.74,1.56 -20.99,2.34 -54.74,2.34 -139.52,0 -209.19,24.44 -209.19,73.31l0 48.87c0,30.11 26.1,49.85 78.3,59.04 9.81,1.75 24.34,3.33 43.36,4.31 18.84,0.98 42.19,1.36 69.85,1.36l170.73 0c81.63,0 145.99,10.55 193.28,31.47 74.37,30.5 111.47,77.42 111.47,140.75l0 62.56z"/>
  <path class="fil0" d="M4177.95 526.19l114.83 39.25 196.29 1340.88c-41.06,112.88 -87.72,223.32 -141.61,327.2 -44.44,85.65 -100.68,179.61 -169.52,261.15l0 -1968.48zm369.24 1777.1l191.41 1307.54 -560.65 -14.25 0 -607.77c161.03,-165.61 281.9,-432.13 369.24,-685.52z"/>
  <path class="fil0" d="M2638.37 1602.19c0,0 192.75,395.23 471.23,722.03l-20.82 142.25c-139.78,-220.85 -289.61,-504.92 -450.41,-864.28zm895.75 1082.49c478.85,240.67 1033.52,-91.69 1350.37,-2357.68 0,0 -290.6,3454.23 -1350.37,2666.23l0 -308.55z"/>
  <polygon class="fil0" points="3508.14,526.19 3393.33,565.43 2947.49,3610.84 3508.14,3596.58 "/>
  <path class="fil1" d="M7874.47 5404.2c0,32.1 1.95,46.67 11.7,75.86 1.99,5.97 4.88,12.14 7.44,17.88 9.84,22.06 24.8,42.24 40.89,58.31 20.05,20.05 47.67,38.65 75.68,48.16 29.07,9.88 44.63,11.88 76.38,11.88 61.53,0 126.56,-36.34 160.9,-86.75 1.8,-2.64 3.3,-4.38 5.06,-7.26l11.15 -19.64c0.83,-1.98 1.25,-2.98 2.13,-4.69 9.46,-18.69 19.15,-51.94 19.15,-80.04 0,-38.6 -4.34,-60.54 -19.14,-93.74 -24.47,-54.87 -77.02,-97.58 -135.46,-112.18 -14.12,-3.54 -27.89,-5.56 -41.5,-6.17l-17.5 0c-20.22,0.91 -40.24,4.91 -60.65,11.72 -5.96,1.99 -12.12,4.87 -17.88,7.44 -35.37,15.79 -72.31,49.05 -90.52,82.55 -16.15,29.71 -27.82,61.57 -27.82,96.69zm204.49 -167c-95.35,0 -172.65,77.29 -172.65,172.65 0,95.35 77.29,172.65 172.65,172.65 95.35,0 172.65,-77.29 172.65,-172.65 0,-95.35 -77.29,-172.65 -172.65,-172.65z"/>
  <path class="fil1" d="M7990.17 5524.29l35.23 0.05c0.85,-6.43 0.28,-80.77 0.26,-93.64 18.58,0 37.48,-1.77 50.51,8.51 8.26,6.5 14.81,16.32 21.41,25.79 7.57,10.85 18.36,30.97 25.71,44.08 2.58,4.58 5.77,11.14 8.7,15.24l43.08 0.01c-1.19,-3.14 -31.45,-50.68 -33.6,-53.97 -6.58,-10.09 -20.58,-29.48 -29.88,-36.47 -3.47,-2.6 -9.61,-6.03 -13.73,-8.11 24.11,-3.98 41.72,-10.22 54.82,-33.42 5.6,-9.88 8.54,-23.2 6.82,-36.43 -2.87,-22.15 -19.57,-41.25 -41.01,-47.3 -20.66,-5.81 -60.9,-4.81 -83.94,-4.81 -14.47,-0.01 -30.06,-0.7 -44.38,-0.1l0 220.57zm35.45 -123.73c19.09,-0.44 45.33,1.28 63.36,-1.46 17.98,-2.74 32.26,-10.25 33.19,-31.11 0.88,-19.82 -13.42,-30.31 -31.37,-32.96 -10.3,-1.53 -52.12,-1.33 -65.17,-1.33l0 66.86z"/>
 </g>
</svg>
